<svg width="14" height="14" viewBox="0 0 14 14" fill="none" xmlns="http://www.w3.org/2000/svg">
<path fill-rule="evenodd" clip-rule="evenodd" d="M1.73345 2.91147C0.855851 4.04039 0.333252 5.45897 0.333252 6.99961C0.333252 7.30728 0.354094 7.61008 0.394442 7.90668L2.02181 7.47062C2.00733 7.31557 1.99992 7.15845 1.99992 6.99961C1.99992 5.91971 2.34227 4.91976 2.92437 4.10239L1.73345 2.91147ZM2.91198 1.73298L4.10291 2.92391C4.70533 2.49494 5.40691 2.19619 6.16658 2.06874V0.384521C4.94937 0.536306 3.83407 1.01623 2.91198 1.73298ZM6.16658 13.6147C3.73954 13.3121 1.71766 11.7048 0.82484 9.51681L2.45228 9.08074C3.13077 10.5609 4.51068 11.6527 6.16658 11.9305V13.6147ZM7.83325 11.9305C10.198 11.5337 11.9999 9.47711 11.9999 6.99961C11.9999 4.52211 10.198 2.46547 7.83325 2.06874V0.384521C11.1218 0.794604 13.6666 3.59993 13.6666 6.99961C13.6666 10.3993 11.1218 13.2046 7.83325 13.6147V11.9305Z" fill="black" fill-opacity="0.54"/>
</svg>
